<?xml version="1.0" encoding="utf-8"?>
<!-- Generator: Adobe Illustrator 17.1.0, SVG Export Plug-In . SVG Version: 6.00 Build 0)  -->
<!DOCTYPE svg PUBLIC "-//W3C//DTD SVG 1.1//EN" "http://www.w3.org/Graphics/SVG/1.1/DTD/svg11.dtd">
<svg version="1.1" id="Layer_1_xA0_Image_1_" xmlns="http://www.w3.org/2000/svg" xmlns:xlink="http://www.w3.org/1999/xlink"
	 x="0px" y="0px" viewBox="0 0 224 792" enable-background="new 0 0 224 792" xml:space="preserve">
<g>
	<path fill="#000300" d="M80.7,173.2c0.5-0.5,0.9-1.2,1.5-2.2c-27.7,0-54.9,0-82.1,0c0-10.2,0-20.4,0-30.6c34.3,0,68.6,0,102.9,0
		c5.2,0,5.2,0,5.2,5.3c0,16.2-0.1,32.3,0.1,48.5c0,2.7-0.7,4.6-2.7,6.4c-27.3,27.5-54.7,55-82.1,82.4c-3,3-4.7,5.8-4.1,10.1
		c0.2,1.9,0.1,3.9,0.1,6.8c30-29.6,59.3-58.8,89.4-88.6c0,2.2,0,3.4,0,4.6c0,14.3-0.1,28.8,0.1,43.2c0,3-0.7,5.1-2.9,7.2
		c-26.1,26-52.2,52.1-78.3,78.2c-1.1,1-2.4,1.7-3.5,2.4c0.2,0.4,0.7,0.9,1,1.2c27.7,0,55.5,0,83.8,0c0,10.2,0,20,0,30
		c-36.3,0-72.5,0-108.8,0c0-41.8,0-83.4,0-125.2"/>
	<path fill="#000300" d="M220,253.1c0,40.9,0.1,84.1,0.1,125.2c-36,0-72,0-108.1,0c0-9.7,0-19.6,0-29.8c28.8,0,56.6,0,84.4,0
		c0.5-0.6,0.9-1.1,1.2-1.7c-1.2-0.7-2.8-1.2-3.9-2.2c-26.2-26.1-52.4-52.4-78.6-78.5c-1.9-1.9-2.7-3.8-2.7-6.4
		c0.1-14.3,0.1-28.5,0.1-42.9c0-1.2,0-2.4,0-4.9c30.1,29.8,59.4,58.9,89.2,88.3c0.9-7,0.4-12.1-5-17.2c-27.9-27.2-55.3-55-82.8-82.5
		c-2.1-2.1-2.8-4-2.8-6.8c0.2-16.4,0.4-32.8,0.5-49.2c0-1.2,0.1-2.4,0.2-4c36.2,0,72.2,0,108.1,0c0,10.2,0,20.4,0,30.6
		c-27.5,0-55,0-83.2,0c1.5,1.7,2.4,2.6,3.3,3.5"/>
	<path fill="#000300" d="M220.1,106.5c-36.2,0-72.3,0-108.7,0c-0.1-1.5-0.1-2.7-0.1-3.9c0-32.1,0.1-128.2,0-96.2c0,1.3,0-5.2,0-5.2
		s15.2,0,19.9,0c0,25.4,0,49.7,0,75.4c29.9,0,59.4,0,88.8,0C220.1,86.6,220.1,96.4,220.1,106.5z"/>
	<path fill="#000300" d="M107.7,1.2c0,35.2,0,70.3,0,105.8c-36.2,0-71.9,0-107.6,0c0-10,0-19.9,0-29.8c29.2,0,58.3,0,87.9,0
		c0-1.6,0-2.9,0-4.3c0.1-22.7,0.1-45.4,0.1-68.1c0,3.2,0-2.2,0.1-3.5"/>
</g>
<g>
	<path fill="#000300" d="M139.6,618.3c-0.5,0.5-0.9,1.2-1.5,2.2c27.7,0,54.9,0,82.1,0c0,10.2,0,20.4,0,30.6c-34.3,0-68.6,0-102.9,0
		c-5.2,0-5.2,0-5.2-5.3c0-16.2,0.1-32.3-0.1-48.5c0-2.7,0.7-4.6,2.7-6.4c27.3-27.5,54.7-55,82.1-82.4c3-3,4.7-5.8,4.1-10.1
		c-0.2-1.9-0.1-3.9-0.1-6.8c-30,29.6-59.3,58.8-89.4,88.6c0-2.2,0-3.4,0-4.6c0-14.3,0.1-28.8-0.1-43.2c0-3,0.7-5.1,2.9-7.2
		c26.1-26,52.2-52.1,78.3-78.2c1.1-1,2.4-1.7,3.5-2.4c-0.2-0.4-0.7-0.9-1-1.2c-27.7,0-55.5,0-83.8,0c0-10.2,0-20,0-30
		c36.3,0,72.5,0,108.8,0c0,41.8,0,83.4,0,125.2"/>
	<path fill="#000300" d="M0.2,538.5c0-40.9-0.1-84.1-0.1-125.2c36,0,72,0,108.1,0c0,9.7,0,19.6,0,29.8c-28.8,0-56.6,0-84.4,0
		c-0.5,0.6-0.9,1.1-1.2,1.7c1.2,0.7,2.8,1.2,3.9,2.2c26.2,26.1,52.4,52.4,78.6,78.5c1.9,1.9,2.7,3.8,2.7,6.4
		c-0.1,14.3-0.1,28.5-0.1,42.9c0,1.2,0,2.4,0,4.9c-30.1-29.8-59.4-58.9-89.2-88.3c-0.9,7-0.4,12.1,5,17.2
		c27.9,27.2,55.3,55,82.8,82.5c2.1,2.1,2.8,4,2.8,6.8c-0.2,16.4-0.4,32.8-0.5,49.2c0,1.2-0.1,2.4-0.2,4c-36.2,0-72.2,0-108.1,0
		c0-10.2,0-20.4,0-30.6c27.5,0,55,0,83.2,0c-1.5-1.7-2.4-2.6-3.3-3.5"/>
	<path fill="#000300" d="M109.2,791.1c0,0-15.2,0-19.9,0c0-25.4-0.1-50.5-0.1-76.3c-29.9,0-59.4,0-88.8,0c-0.1-10-0.1-19.8-0.1-29.8
		c36.2,0,72.3,0,108.7,0c0.1,1.5,0.1,2.7,0.1,3.9"/>
	<path fill="#000300" d="M112.5,791c0-35.2,0-70.3,0-105.8c36.2,0,71.9,0,107.6,0c0,10,0,19.9,0,29.8c-29.2,0-58.3,0-87.9,0
		c0,1.6,0,2.9,0,4.3c-0.1,22.7-0.1,45.4-0.1,68.1c0-3.2,0,2.2-0.1,3.5"/>
</g>
</svg>
